<svg xmlns="http://www.w3.org/2000/svg" xmlns:xlink="http://www.w3.org/1999/xlink" width="500" zoomAndPan="magnify" viewBox="0 0 375 374.999991" height="500" preserveAspectRatio="xMidYMid meet" version="1.0"><defs><g/></defs><g fill="#ffde59" fill-opacity="1"><g transform="translate(40.519778, 306.343386)"><g><path d="M 59.261719 -8.21875 C 36.664062 13.90625 11.378906 -12.957031 6.164062 -35.714844 C 0.949219 -59.578125 10.589844 -88.183594 33.820312 -99.085938 C 61.472656 -112.203125 75.066406 -85.496094 75.222656 -81.386719 C 83.125 -61.160156 74.90625 -23.546875 59.261719 -8.21875 Z M 36.820312 -16.75 C 53.257812 -9.480469 68.429688 -59.261719 52.941406 -68.113281 C 42.351562 -74.433594 34.136719 -59.894531 31.132812 -51.835938 C 27.339844 -42.351562 24.652344 -21.964844 36.820312 -16.75 Z M 36.820312 -16.75 "/></g></g></g><g fill="#ffde59" fill-opacity="1"><g transform="translate(116.842281, 306.343386)"><g><path d="M 36.347656 -0.316406 C 25.601562 -2.054688 20.070312 -33.660156 16.75 -42.828125 C 12.957031 -52.941406 -2.054688 -83.441406 8.535156 -93.238281 C 30.660156 -113.941406 30.027344 -48.515625 43.933594 -48.359375 C 46.777344 -60.050781 52.152344 -85.8125 61.316406 -93.871094 C 64.636719 -96.875 70.480469 -97.820312 74.589844 -96.558594 C 82.492188 -94.1875 77.910156 -83.125 76.171875 -78.066406 C 70.640625 -62.265625 66.214844 -46.304688 63.210938 -30.027344 C 60.367188 -14.855469 57.050781 2.84375 36.347656 -0.316406 Z M 36.347656 -0.316406 "/></g></g></g><g fill="#ffde59" fill-opacity="1"><g transform="translate(189.214288, 306.343386)"><g><path d="M 9.324219 -4.265625 C 1.582031 -13.75 6.003906 -40.457031 6.003906 -51.359375 C 6.164062 -63.054688 6.636719 -74.90625 6.796875 -86.757812 C 6.796875 -98.453125 14.066406 -99.242188 24.179688 -99.558594 C 30.34375 -99.875 59.578125 -103.195312 61.949219 -94.1875 C 66.53125 -76.804688 34.925781 -82.652344 30.34375 -72.535156 C 23.703125 -58.15625 72.0625 -69.058594 55.46875 -52.625 C 48.988281 -46.304688 38.242188 -48.359375 31.289062 -42.667969 C 27.972656 -40.140625 22.914062 -29.710938 29.234375 -28.917969 C 40.929688 -29.234375 79.488281 -35.082031 61.632812 -10.902344 C 55.3125 -2.210938 16.75 4.898438 9.324219 -4.265625 Z M 9.324219 -4.265625 "/></g></g></g><g fill="#ffde59" fill-opacity="1"><g transform="translate(253.527314, 306.343386)"><g><path d="M 19.910156 -0.472656 C 12.640625 1.265625 7.113281 -1.582031 6.636719 -9.324219 C 5.214844 -27.8125 6.320312 -46.621094 5.6875 -65.425781 C 5.375 -75.066406 1.265625 -97.980469 14.066406 -100.035156 C 13.589844 -100.035156 13.433594 -100.035156 14.222656 -100.191406 C 44.089844 -107.9375 89.605469 -94.660156 72.378906 -56.734375 C 69.851562 -51.203125 66.214844 -46.144531 61.472656 -42.195312 C 57.050781 -38.402344 66.375 -29.394531 68.585938 -25.285156 C 77.4375 -10.113281 69.375 7.902344 52.941406 -7.742188 C 47.726562 -12.800781 43.457031 -18.964844 40.140625 -25.441406 C 35.242188 -34.609375 29.550781 -27.65625 28.917969 -20.226562 C 28.445312 -13.117188 28.605469 -2.527344 19.910156 -0.472656 Z M 30.660156 -42.828125 C 35.558594 -44.882812 61.160156 -59.261719 51.042969 -67.796875 C 47.09375 -71.113281 40.296875 -69.535156 35.558594 -69.21875 C 29.867188 -68.742188 30.972656 -48.042969 30.660156 -42.828125 Z M 30.660156 -42.828125 "/></g></g></g><g fill="#ffde59" fill-opacity="1"><g transform="translate(26.306232, 195.319018)"><g><path d="M 28.445312 -2.84375 C -14.539062 -19.597656 6.320312 -96.875 48.675781 -100.035156 C 66.53125 -101.457031 101.296875 -78.226562 77.59375 -61 C 67.320312 -53.574219 61 -57.839844 57.367188 -67.953125 C 47.09375 -97.191406 5.058594 -19.910156 46.460938 -19.910156 C 49.304688 -19.910156 54.046875 -21.175781 54.996094 -24.335938 C 56.417969 -28.445312 46.304688 -27.65625 44.40625 -28.128906 C 36.820312 -29.867188 34.925781 -43.773438 42.828125 -46.304688 C 53.890625 -49.78125 66.53125 -50.414062 78.066406 -50.414062 C 90.710938 -50.414062 84.074219 -33.660156 81.703125 -26.707031 C 74.117188 -4.898438 49.78125 5.53125 28.445312 -2.84375 Z M 28.445312 -2.84375 "/></g></g></g><g fill="#ffde59" fill-opacity="1"><g transform="translate(108.475453, 195.319018)"><g><path d="M 0.632812 1.265625 C -2.6875 -9.007812 8.21875 -27.339844 11.851562 -36.503906 C 14.855469 -43.617188 32.554688 -99.558594 46.304688 -93.714844 C 60.050781 -87.550781 74.75 -20.226562 70.480469 -7.113281 C 64.636719 11.378906 55.785156 -9.007812 50.726562 -12.800781 C 45.355469 -16.75 23.546875 -18.015625 20.542969 -10.746094 C 18.648438 -6.164062 6.320312 19.121094 0.632812 1.265625 Z M 34.449219 -32.871094 C 50.570312 -33.660156 40.457031 -48.832031 38.875 -50.414062 C 35.082031 -47.09375 23.074219 -32.238281 34.449219 -32.871094 Z M 34.449219 -32.871094 "/></g></g></g><g fill="#ffde59" fill-opacity="1"><g transform="translate(177.845098, 195.319018)"><g><path d="M 24.652344 5.847656 C 2.054688 20.070312 7.425781 -22.914062 7.113281 -32.871094 C 6.953125 -43.617188 -0.472656 -86.128906 11.695312 -91.34375 C 16.121094 -93.238281 27.179688 -94.660156 30.972656 -90.867188 C 33.503906 -88.339844 34.292969 -79.648438 34.449219 -78.859375 C 42.035156 -67.636719 48.675781 -54.996094 54.363281 -42.828125 C 59.105469 -54.363281 65.582031 -91.183594 79.015625 -95.136719 C 107.9375 -103.667969 101.457031 -71.589844 100.667969 -54.046875 C 100.351562 -46.144531 102.878906 5.847656 87.550781 -0.472656 C 75.222656 -5.6875 78.699219 -33.1875 76.804688 -43.300781 C 73.328125 -37.613281 62.898438 -2.054688 55.3125 -3.632812 C 45.671875 -5.53125 36.03125 -34.765625 32.238281 -42.195312 C 31.449219 -32.554688 34.609375 -0.472656 24.652344 5.847656 Z M 24.652344 5.847656 "/></g></g></g><g fill="#ffde59" fill-opacity="1"><g transform="translate(277.71252, 195.319018)"><g><path d="M 9.324219 -4.265625 C 1.582031 -13.75 6.003906 -40.457031 6.003906 -51.359375 C 6.164062 -63.054688 6.636719 -74.90625 6.796875 -86.757812 C 6.796875 -98.453125 14.066406 -99.242188 24.179688 -99.558594 C 30.34375 -99.875 59.578125 -103.195312 61.949219 -94.1875 C 66.53125 -76.804688 34.925781 -82.652344 30.34375 -72.535156 C 23.703125 -58.15625 72.0625 -69.058594 55.46875 -52.625 C 48.988281 -46.304688 38.242188 -48.359375 31.289062 -42.667969 C 27.972656 -40.140625 22.914062 -29.710938 29.234375 -28.917969 C 40.929688 -29.234375 79.488281 -35.082031 61.632812 -10.902344 C 55.3125 -2.210938 16.75 4.898438 9.324219 -4.265625 Z M 9.324219 -4.265625 "/></g></g></g></svg>