<svg xmlns="http://www.w3.org/2000/svg" xmlns:xlink="http://www.w3.org/1999/xlink" width="500" zoomAndPan="magnify" viewBox="0 0 375 374.999991" height="500" preserveAspectRatio="xMidYMid meet" version="1.0"><defs><g/></defs><g fill="#ffde59" fill-opacity="1"><g transform="translate(10.226726, 224.779172)"><g><path d="M 23.78125 -0.171875 C 2.585938 2.242188 7.066406 -24.472656 6.722656 -38.085938 C 6.203125 -54.113281 0 -102.710938 16.714844 -104.953125 C 36.878906 -109.433594 66.867188 -110.296875 79.101562 -90.132812 C 93.40625 -66.523438 74.105469 -36.191406 57.90625 -19.128906 C 48.769531 -9.652344 37.050781 -1.550781 23.78125 -0.171875 Z M 38.777344 -29.640625 C 42.394531 -32.398438 60.664062 -47.046875 66.003906 -61.523438 C 70.832031 -75.3125 61.007812 -83.066406 47.738281 -82.03125 C 31.367188 -80.824219 35.671875 -69.796875 34.8125 -55.835938 C 34.46875 -49.632812 29.125 -22.402344 38.777344 -29.640625 Z M 38.777344 -29.640625 "/></g></g></g><g fill="#ffde59" fill-opacity="1"><g transform="translate(87.079047, 224.779172)"><g><path d="M 21.714844 -0.515625 C 13.785156 1.378906 7.753906 -1.722656 7.238281 -10.167969 C 5.6875 -30.332031 6.894531 -50.839844 6.203125 -71.347656 C 5.859375 -81.859375 1.378906 -106.847656 15.339844 -109.089844 C 14.820312 -109.089844 14.648438 -109.089844 15.511719 -109.261719 C 48.082031 -117.707031 97.714844 -103.230469 78.929688 -61.867188 C 76.171875 -55.835938 72.210938 -50.324219 67.039062 -46.015625 C 62.214844 -41.878906 72.382812 -32.054688 74.792969 -27.574219 C 84.445312 -11.03125 75.65625 8.617188 57.734375 -8.445312 C 52.046875 -13.960938 47.394531 -20.679688 43.773438 -27.746094 C 38.429688 -37.742188 32.226562 -30.160156 31.539062 -22.058594 C 31.019531 -14.304688 31.191406 -2.757812 21.714844 -0.515625 Z M 33.433594 -46.703125 C 38.777344 -48.945312 66.695312 -64.625 55.664062 -73.933594 C 51.355469 -77.550781 43.945312 -75.828125 38.777344 -75.484375 C 32.570312 -74.964844 33.777344 -52.390625 33.433594 -46.703125 Z M 33.433594 -46.703125 "/></g></g></g><g fill="#ffde59" fill-opacity="1"><g transform="translate(168.066971, 224.779172)"><g><path d="M 0.6875 1.378906 C -2.929688 -9.824219 8.960938 -29.8125 12.925781 -39.808594 C 16.199219 -47.566406 35.5 -108.570312 50.496094 -102.195312 C 65.488281 -95.476562 81.515625 -22.058594 76.863281 -7.753906 C 70.484375 12.410156 60.835938 -9.824219 55.320312 -13.960938 C 49.460938 -18.269531 25.679688 -19.644531 22.402344 -11.71875 C 20.335938 -6.722656 6.894531 20.851562 0.6875 1.378906 Z M 37.570312 -35.847656 C 55.148438 -36.707031 44.117188 -53.253906 42.394531 -54.976562 C 38.257812 -51.355469 25.160156 -35.15625 37.570312 -35.847656 Z M 37.570312 -35.847656 "/></g></g></g><g fill="#ffde59" fill-opacity="1"><g transform="translate(243.713041, 224.779172)"><g><path d="M 43.945312 0 C 25.160156 0.515625 21.371094 -34.121094 17.40625 -47.566406 C 13.613281 -60.144531 -4.824219 -100.988281 12.410156 -108.746094 C 26.539062 -114.949219 42.910156 -68.761719 48.425781 -59.285156 C 51.527344 -68.074219 49.117188 -108.226562 67.726562 -103.230469 C 80.480469 -99.957031 86.339844 -65.144531 90.648438 -57.042969 C 97.027344 -69.796875 82.550781 -102.195312 102.886719 -106.675781 C 123.394531 -111.15625 113.570312 -65.660156 112.878906 -54.457031 C 112.019531 -41.015625 116.328125 -2.585938 95.300781 -5.859375 C 85.652344 -7.410156 82.550781 -22.75 79.449219 -29.988281 C 77.207031 -34.984375 72.035156 -50.148438 67.902344 -38.777344 C 62.558594 -23.265625 65.488281 -0.6875 43.945312 0 Z M 43.945312 0 "/></g></g></g><g fill="#ffde59" fill-opacity="1"><g transform="translate(20.532375, 300.108806)"><g><path d="M 18.371094 -1.835938 C -9.390625 -12.65625 4.082031 -62.566406 31.4375 -64.609375 C 42.96875 -65.527344 65.425781 -50.523438 50.113281 -39.398438 C 43.480469 -34.601562 39.398438 -37.355469 37.050781 -43.886719 C 30.414062 -62.769531 3.265625 -12.859375 30.007812 -12.859375 C 31.84375 -12.859375 34.90625 -13.675781 35.519531 -15.71875 C 36.4375 -18.371094 29.90625 -17.863281 28.679688 -18.167969 C 23.78125 -19.289062 22.554688 -28.273438 27.660156 -29.90625 C 34.804688 -32.152344 42.96875 -32.558594 50.421875 -32.558594 C 58.585938 -32.558594 54.300781 -21.738281 52.769531 -17.25 C 47.867188 -3.164062 32.152344 3.574219 18.371094 -1.835938 Z M 18.371094 -1.835938 "/></g></g></g><g fill="#ffde59" fill-opacity="1"><g transform="translate(73.601941, 300.108806)"><g><path d="M 35.824219 -1.429688 C 23.167969 3.878906 11.738281 -6.125 7.757812 -17.65625 C 3.878906 -28.882812 1.121094 -45.113281 4.695312 -56.648438 C 6.328125 -61.648438 10.921875 -63.6875 15.921875 -62.464844 C 20.210938 -61.339844 18.167969 -55.421875 17.964844 -54.402344 C 16.226562 -45.519531 15.207031 -28.066406 21.636719 -20.414062 C 29.597656 -11.125 32.96875 -25.007812 33.171875 -31.027344 C 33.578125 -38.988281 26.539062 -62.363281 37.050781 -64.503906 C 54.503906 -68.078125 50.523438 -46.542969 49.503906 -35.417969 C 48.480469 -23.78125 48.582031 -6.738281 35.824219 -1.429688 Z M 35.824219 -1.429688 "/></g></g></g><g fill="#ffde59" fill-opacity="1"><g transform="translate(122.997431, 300.108806)"><g><path d="M 6.023438 -2.753906 C 1.019531 -8.878906 3.878906 -26.128906 3.878906 -33.171875 C 3.980469 -40.722656 4.285156 -48.378906 4.390625 -56.035156 C 4.390625 -63.585938 9.082031 -64.097656 15.617188 -64.300781 C 19.597656 -64.503906 38.480469 -66.648438 40.011719 -60.832031 C 42.96875 -49.605469 22.554688 -53.378906 19.597656 -46.847656 C 15.308594 -37.558594 46.542969 -44.601562 35.824219 -33.988281 C 31.640625 -29.90625 24.699219 -31.230469 20.210938 -27.558594 C 18.066406 -25.925781 14.800781 -19.1875 18.882812 -18.679688 C 26.433594 -18.882812 51.339844 -22.660156 39.804688 -7.042969 C 35.722656 -1.429688 10.820312 3.164062 6.023438 -2.753906 Z M 6.023438 -2.753906 "/></g></g></g><g fill="#ffde59" fill-opacity="1"><g transform="translate(164.534449, 300.108806)"><g><path d="M 8.472656 -3.980469 C 3.980469 -6.53125 0.511719 -12.65625 5.613281 -16.738281 C 11.328125 -21.230469 17.554688 -12.554688 22.453125 -10.71875 C 28.78125 -8.371094 32.355469 -14.085938 28.273438 -19.1875 C 24.597656 -23.679688 18.269531 -25.824219 13.371094 -28.679688 C 0.613281 -36.132812 -0.613281 -53.378906 13.269531 -61.035156 C 26.433594 -68.28125 41.746094 -62.464844 48.175781 -49.398438 C 53.6875 -38.171875 37.765625 -30.621094 33.578125 -38.683594 C 31.945312 -40.722656 30.3125 -49.398438 24.394531 -48.378906 C 16.332031 -46.949219 17.453125 -39.089844 23.167969 -35.519531 C 31.640625 -30.210938 56.035156 -23.066406 45.929688 -8.472656 C 38.582031 2.144531 18.78125 1.835938 8.472656 -3.980469 Z M 8.472656 -3.980469 "/></g></g></g><g fill="#ffde59" fill-opacity="1"><g transform="translate(212.603189, 300.108806)"><g><path d="M 8.472656 -3.980469 C 3.980469 -6.53125 0.511719 -12.65625 5.613281 -16.738281 C 11.328125 -21.230469 17.554688 -12.554688 22.453125 -10.71875 C 28.78125 -8.371094 32.355469 -14.085938 28.273438 -19.1875 C 24.597656 -23.679688 18.269531 -25.824219 13.371094 -28.679688 C 0.613281 -36.132812 -0.613281 -53.378906 13.269531 -61.035156 C 26.433594 -68.28125 41.746094 -62.464844 48.175781 -49.398438 C 53.6875 -38.171875 37.765625 -30.621094 33.578125 -38.683594 C 31.945312 -40.722656 30.3125 -49.398438 24.394531 -48.378906 C 16.332031 -46.949219 17.453125 -39.089844 23.167969 -35.519531 C 31.640625 -30.210938 56.035156 -23.066406 45.929688 -8.472656 C 38.582031 2.144531 18.78125 1.835938 8.472656 -3.980469 Z M 8.472656 -3.980469 "/></g></g></g><g fill="#ffde59" fill-opacity="1"><g transform="translate(260.67193, 300.108806)"><g><path d="M 6.023438 -2.753906 C 1.019531 -8.878906 3.878906 -26.128906 3.878906 -33.171875 C 3.980469 -40.722656 4.285156 -48.378906 4.390625 -56.035156 C 4.390625 -63.585938 9.082031 -64.097656 15.617188 -64.300781 C 19.597656 -64.503906 38.480469 -66.648438 40.011719 -60.832031 C 42.96875 -49.605469 22.554688 -53.378906 19.597656 -46.847656 C 15.308594 -37.558594 46.542969 -44.601562 35.824219 -33.988281 C 31.640625 -29.90625 24.699219 -31.230469 20.210938 -27.558594 C 18.066406 -25.925781 14.800781 -19.1875 18.882812 -18.679688 C 26.433594 -18.882812 51.339844 -22.660156 39.804688 -7.042969 C 35.722656 -1.429688 10.820312 3.164062 6.023438 -2.753906 Z M 6.023438 -2.753906 "/></g></g></g><g fill="#ffde59" fill-opacity="1"><g transform="translate(302.208956, 300.108806)"><g><path d="M 12.859375 -0.304688 C 8.164062 0.816406 4.59375 -1.019531 4.285156 -6.023438 C 3.367188 -17.964844 4.082031 -30.109375 3.675781 -42.253906 C 3.46875 -48.480469 0.816406 -63.28125 9.082031 -64.609375 C 8.777344 -64.609375 8.675781 -64.609375 9.1875 -64.710938 C 28.476562 -69.710938 57.871094 -61.136719 46.746094 -36.640625 C 45.113281 -33.070312 42.765625 -29.804688 39.703125 -27.25 C 36.847656 -24.800781 42.867188 -18.984375 44.296875 -16.332031 C 50.011719 -6.53125 44.808594 5.101562 34.191406 -5 C 30.824219 -8.265625 28.066406 -12.246094 25.925781 -16.433594 C 22.761719 -22.351562 19.085938 -17.863281 18.679688 -13.066406 C 18.371094 -8.472656 18.472656 -1.632812 12.859375 -0.304688 Z M 19.800781 -27.660156 C 22.964844 -28.988281 39.5 -38.273438 32.96875 -43.785156 C 30.414062 -45.929688 26.027344 -44.910156 22.964844 -44.703125 C 19.289062 -44.398438 20.003906 -31.027344 19.800781 -27.660156 Z M 19.800781 -27.660156 "/></g></g></g></svg>